{
  "accessors": [
    {
      "bufferView": 0,
      "byteOffset": 0,
      "componentType": 5125,
      "count": 132,
      "max": [
        59
      ],
      "min": [
        0
      ],
      "type": "SCALAR"
    },
    {
      "bufferView": 1,
      "byteOffset": 0,
      "componentType": 5126,
      "count": 60,
      "max": [
        1,
        1,
        1
      ],
      "min": [
        -1,
        -1,
        -1
      ],
      "type": "VEC3"
    },
    {
      "bufferView": 2,
      "byteOffset": 0,
      "componentType": 5126,
      "count": 60,
      "max": [
        15,
        50,
        7.5
      ],
      "min": [
        -15,
        0,
        -7.5
      ],
      "type": "VEC3"
    },
    {
      "bufferView": 3,
      "byteOffset": 0,
      "componentType": 5126,
      "count": 60,
      "max": [
        0.99800801277160645,
        0.99820226430892944
      ],
      "min": [
        0.0019920321647077799,
        0.099343776702880859
      ],
      "type": "VEC2"
    },
    {
      "bufferView": 4,
      "byteOffset": 0,
      "componentType": 5125,
      "count": 5376,
      "max": [
        1036
      ],
      "min": [
        0
      ],
      "type": "SCALAR"
    },
    {
      "bufferView": 5,
      "byteOffset": 0,
      "componentType": 5126,
      "count": 1037,
      "max": [
        1,
        1,
        1
      ],
      "min": [
        -1,
        -1,
        -1
      ],
      "type": "VEC3"
    },
    {
      "bufferView": 6,
      "byteOffset": 0,
      "componentType": 5126,
      "count": 1037,
      "max": [
        8,
        71,
        -7.5
      ],
      "min": [
        -7.9999966621398926,
        46,
        -9.5
      ],
      "type": "VEC3"
    },
    {
      "bufferView": 7,
      "byteOffset": 0,
      "componentType": 5126,
      "count": 1037,
      "max": [
        0.99468994140625,
        8.6221132278442383
      ],
      "min": [
        0.0033283233642578125,
        -9.8631582260131836
      ],
      "type": "VEC2"
    },
    {
      "bufferView": 8,
      "byteOffset": 0,
      "componentType": 5125,
      "count": 5376,
      "max": [
        1036
      ],
      "min": [
        0
      ],
      "type": "SCALAR"
    },
    {
      "bufferView": 9,
      "byteOffset": 0,
      "componentType": 5126,
      "count": 1037,
      "max": [
        1,
        1,
        1
      ],
      "min": [
        -1,
        -1,
        -1
      ],
      "type": "VEC3"
    },
    {
      "bufferView": 10,
      "byteOffset": 0,
      "componentType": 5126,
      "count": 1037,
      "max": [
        8,
        71,
        9.5000076293945313
      ],
      "min": [
        -7.9999966621398926,
        46,
        7.5000019073486328
      ],
      "type": "VEC3"
    },
    {
      "bufferView": 11,
      "byteOffset": 0,
      "componentType": 5126,
      "count": 1037,
      "max": [
        0.99468994140625,
        8.6221132278442383
      ],
      "min": [
        0.0033283233642578125,
        -9.8631582260131836
      ],
      "type": "VEC2"
    }
  ],
  "asset": {
    "generator": "glTF-Maya-Exporter ver1.5.0",
    "version": "2.0"
  },
  "bufferViews": [
    {
      "buffer": 0,
      "byteLength": 528,
      "byteOffset": 0,
      "target": 34963
    },
    {
      "buffer": 0,
      "byteLength": 720,
      "byteOffset": 528,
      "target": 34962
    },
    {
      "buffer": 0,
      "byteLength": 720,
      "byteOffset": 1248,
      "target": 34962
    },
    {
      "buffer": 0,
      "byteLength": 480,
      "byteOffset": 1968,
      "target": 34962
    },
    {
      "buffer": 0,
      "byteLength": 21504,
      "byteOffset": 2448,
      "target": 34963
    },
    {
      "buffer": 0,
      "byteLength": 12444,
      "byteOffset": 23952,
      "target": 34962
    },
    {
      "buffer": 0,
      "byteLength": 12444,
      "byteOffset": 36396,
      "target": 34962
    },
    {
      "buffer": 0,
      "byteLength": 8296,
      "byteOffset": 48840,
      "target": 34962
    },
    {
      "buffer": 0,
      "byteLength": 21504,
      "byteOffset": 57136,
      "target": 34963
    },
    {
      "buffer": 0,
      "byteLength": 12444,
      "byteOffset": 78640,
      "target": 34962
    },
    {
      "buffer": 0,
      "byteLength": 12444,
      "byteOffset": 91084,
      "target": 34962
    },
    {
      "buffer": 0,
      "byteLength": 8296,
      "byteOffset": 103528,
      "target": 34962
    }
  ],
  "buffers": [
    {
      "byteLength": 111824,
      "uri": "bag_sample.bin"
    }
  ],
  "images": [
    {
      "name": "Rope_nrm",
      "uri": ".\/Rope_nrm.jpg"
    },
    {
      "name": "mi_bump_flakes_NORMAL_v002",
      "uri": ".\/mi_bump_flakes_NORMAL_v002.jpg"
    }
  ],
  "materials": [
    {
      "alphaMode": "OPAQUE",
      "emissiveFactor": [
        0,
        0,
        0
      ],
      "name": "ai_bag_body",
      "normalTexture": {
        "index": 1
      },
      "pbrMetallicRoughness": {
        "baseColorFactor": [
          0.66719943284988403,
          0.80000001192092896,
          0.46240001916885376,
          1
        ],
        "metallicFactor": 0,
        "roughnessFactor": 0.10000000149011612
      }
    },
    {
      "alphaMode": "OPAQUE",
      "emissiveFactor": [
        0,
        0,
        0
      ],
      "name": "rope",
      "normalTexture": {
        "index": 0
      },
      "pbrMetallicRoughness": {
        "baseColorFactor": [
          0.5,
          0.5,
          0.5,
          1
        ],
        "metallicFactor": 0,
        "roughnessFactor": 1
      }
    }
  ],
  "meshes": [
    {
      "name": "pCubeShape1",
      "primitives": [
        {
          "attributes": {
            "NORMAL": 1,
            "POSITION": 2,
            "TEXCOORD_0": 3
          },
          "indices": 0,
          "material": 0,
          "mode": 4
        }
      ]
    },
    {
      "name": "pTorus3Shape",
      "primitives": [
        {
          "attributes": {
            "NORMAL": 5,
            "POSITION": 6,
            "TEXCOORD_0": 7
          },
          "indices": 4,
          "material": 1,
          "mode": 4
        }
      ]
    },
    {
      "name": "pTorus4Shape",
      "primitives": [
        {
          "attributes": {
            "NORMAL": 9,
            "POSITION": 10,
            "TEXCOORD_0": 11
          },
          "indices": 8,
          "material": 1,
          "mode": 4
        }
      ]
    }
  ],
  "nodes": [
    {
      "children": [
        1,
        2,
        3
      ],
      "name": "bag_sample"
    },
    {
      "mesh": 0,
      "name": "pCube1"
    },
    {
      "mesh": 1,
      "name": "pTorus3"
    },
    {
      "mesh": 2,
      "name": "pTorus4"
    }
  ],
  "samplers": [
    {
      "magFilter": 9728,
      "minFilter": 9728,
      "wrapS": 10497,
      "wrapT": 10497
    }
  ],
  "scene": 0,
  "scenes": [
    {
      "nodes": [
        0
      ]
    }
  ],
  "textures": [
    {
      "sampler": 0,
      "source": 0
    },
    {
      "sampler": 0,
      "source": 1
    }
  ]
}
