{
    "asset" : {
        "generator" : "Khronos glTF Blender I/O v1.6.16",
        "version" : "2.0"
    },
    "scene" : 0,
    "scenes" : [
        {
            "name" : "Scene",
            "nodes" : [
                3,
                4,
                5,
                6
            ]
        }
    ],
    "nodes" : [
        {
            "mesh" : 0,
            "name" : "pCube1"
        },
        {
            "mesh" : 1,
            "name" : "pTorus3"
        },
        {
            "mesh" : 2,
            "name" : "pTorus4"
        },
        {
            "children" : [
                0,
                1,
                2
            ],
            "name" : "bag_sample"
        },
        {
            "mesh" : 3,
            "name" : "Cube"
        },
        {
            "name" : "Light",
            "rotation" : [
                0.16907575726509094,
                0.7558803558349609,
                -0.27217137813568115,
                0.570947527885437
            ],
            "translation" : [
                4.076245307922363,
                5.903861999511719,
                -1.0054539442062378
            ]
        },
        {
            "name" : "Camera",
            "rotation" : [
                0.483536034822464,
                0.33687159419059753,
                -0.20870360732078552,
                0.7804827094078064
            ],
            "translation" : [
                7.358891487121582,
                4.958309173583984,
                6.925790786743164
            ]
        }
    ],
    "materials" : [
        {
            "name" : "ai_bag_body",
            "pbrMetallicRoughness" : {
                "baseColorFactor" : [
                    0.667199432849884,
                    0.800000011920929,
                    0.46240001916885376,
                    1
                ],
                "metallicFactor" : 0,
                "roughnessFactor" : 0.10000000149011612
            }
        },
        {
            "name" : "rope",
            "pbrMetallicRoughness" : {
                "baseColorFactor" : [
                    0.5,
                    0.5,
                    0.5,
                    1
                ],
                "metallicFactor" : 0
            }
        },
        {
            "doubleSided" : true,
            "name" : "Material",
            "pbrMetallicRoughness" : {
                "baseColorFactor" : [
                    0.800000011920929,
                    0.800000011920929,
                    0.800000011920929,
                    1
                ],
                "metallicFactor" : 0,
                "roughnessFactor" : 0.4000000059604645
            }
        }
    ],
    "meshes" : [
        {
            "name" : "pCubeShape1",
            "primitives" : [
                {
                    "attributes" : {
                        "POSITION" : 0,
                        "NORMAL" : 1,
                        "TEXCOORD_0" : 2
                    },
                    "indices" : 3,
                    "material" : 0
                }
            ]
        },
        {
            "name" : "pTorus3Shape",
            "primitives" : [
                {
                    "attributes" : {
                        "POSITION" : 4,
                        "NORMAL" : 5,
                        "TEXCOORD_0" : 6
                    },
                    "indices" : 7,
                    "material" : 1
                }
            ]
        },
        {
            "name" : "pTorus4Shape",
            "primitives" : [
                {
                    "attributes" : {
                        "POSITION" : 8,
                        "NORMAL" : 9,
                        "TEXCOORD_0" : 10
                    },
                    "indices" : 11,
                    "material" : 1
                }
            ]
        },
        {
            "name" : "Cube",
            "primitives" : [
                {
                    "attributes" : {
                        "POSITION" : 12,
                        "NORMAL" : 13,
                        "TEXCOORD_0" : 14
                    },
                    "indices" : 15,
                    "material" : 2
                }
            ]
        }
    ],
    "accessors" : [
        {
            "bufferView" : 0,
            "componentType" : 5126,
            "count" : 76,
            "max" : [
                15,
                50,
                7.5
            ],
            "min" : [
                -15,
                -2.266218423843384,
                -8.472371101379395
            ],
            "type" : "VEC3"
        },
        {
            "bufferView" : 1,
            "componentType" : 5126,
            "count" : 76,
            "type" : "VEC3"
        },
        {
            "bufferView" : 2,
            "componentType" : 5126,
            "count" : 76,
            "type" : "VEC2"
        },
        {
            "bufferView" : 3,
            "componentType" : 5123,
            "count" : 132,
            "type" : "SCALAR"
        },
        {
            "bufferView" : 4,
            "componentType" : 5126,
            "count" : 1037,
            "max" : [
                8,
                71,
                -7.5
            ],
            "min" : [
                -7.999996662139893,
                46,
                -9.5
            ],
            "type" : "VEC3"
        },
        {
            "bufferView" : 5,
            "componentType" : 5126,
            "count" : 1037,
            "type" : "VEC3"
        },
        {
            "bufferView" : 6,
            "componentType" : 5126,
            "count" : 1037,
            "type" : "VEC2"
        },
        {
            "bufferView" : 7,
            "componentType" : 5123,
            "count" : 5376,
            "type" : "SCALAR"
        },
        {
            "bufferView" : 8,
            "componentType" : 5126,
            "count" : 1037,
            "max" : [
                8,
                71,
                9.500007629394531
            ],
            "min" : [
                -7.999996662139893,
                46,
                7.500001907348633
            ],
            "type" : "VEC3"
        },
        {
            "bufferView" : 9,
            "componentType" : 5126,
            "count" : 1037,
            "type" : "VEC3"
        },
        {
            "bufferView" : 10,
            "componentType" : 5126,
            "count" : 1037,
            "type" : "VEC2"
        },
        {
            "bufferView" : 11,
            "componentType" : 5123,
            "count" : 5376,
            "type" : "SCALAR"
        },
        {
            "bufferView" : 12,
            "componentType" : 5126,
            "count" : 24,
            "max" : [
                1,
                1,
                1
            ],
            "min" : [
                -1,
                -1,
                -1
            ],
            "type" : "VEC3"
        },
        {
            "bufferView" : 13,
            "componentType" : 5126,
            "count" : 24,
            "type" : "VEC3"
        },
        {
            "bufferView" : 14,
            "componentType" : 5126,
            "count" : 24,
            "type" : "VEC2"
        },
        {
            "bufferView" : 15,
            "componentType" : 5123,
            "count" : 36,
            "type" : "SCALAR"
        }
    ],
    "bufferViews" : [
        {
            "buffer" : 0,
            "byteLength" : 912,
            "byteOffset" : 0
        },
        {
            "buffer" : 0,
            "byteLength" : 912,
            "byteOffset" : 912
        },
        {
            "buffer" : 0,
            "byteLength" : 608,
            "byteOffset" : 1824
        },
        {
            "buffer" : 0,
            "byteLength" : 264,
            "byteOffset" : 2432
        },
        {
            "buffer" : 0,
            "byteLength" : 12444,
            "byteOffset" : 2696
        },
        {
            "buffer" : 0,
            "byteLength" : 12444,
            "byteOffset" : 15140
        },
        {
            "buffer" : 0,
            "byteLength" : 8296,
            "byteOffset" : 27584
        },
        {
            "buffer" : 0,
            "byteLength" : 10752,
            "byteOffset" : 35880
        },
        {
            "buffer" : 0,
            "byteLength" : 12444,
            "byteOffset" : 46632
        },
        {
            "buffer" : 0,
            "byteLength" : 12444,
            "byteOffset" : 59076
        },
        {
            "buffer" : 0,
            "byteLength" : 8296,
            "byteOffset" : 71520
        },
        {
            "buffer" : 0,
            "byteLength" : 10752,
            "byteOffset" : 79816
        },
        {
            "buffer" : 0,
            "byteLength" : 288,
            "byteOffset" : 90568
        },
        {
            "buffer" : 0,
            "byteLength" : 288,
            "byteOffset" : 90856
        },
        {
            "buffer" : 0,
            "byteLength" : 192,
            "byteOffset" : 91144
        },
        {
            "buffer" : 0,
            "byteLength" : 72,
            "byteOffset" : 91336
        }
    ],
    "buffers" : [
        {
            "byteLength" : 91408,
            "uri" : "data:application/octet-stream;base64,"
        }
    ]
}
